# xmcd
#
# Track frame offsets:
#	150
#	8831
#	30464
#	46067
#	63991
#	80539
#	99166
#	115803
#	132233
#	159881
#	172636
#
# Disc length: 2549 seconds
#
# Revision: 0
# Processed by: cddbd v1.4PL0 Copyright (c) Steve Scherf et al.
# Submitted via: audiograbber 1.81.01
#
DISCID=6f09f30b
DTITLE=BLUE - Something Borrowed Something Blue
DYEAR=2002
DGENRE=Blues
TTITLE0=Nut and Butter
TTITLE1=Aces
TTITLE2=Hound Dog
TTITLE3=Old Soul
TTITLE4=Mare, Model, and Mileage
TTITLE5=Fistful of Bartabs
TTITLE6=My Drinkin
TTITLE7=Hoodoo Love
TTITLE8=Mi Mucer
TTITLE9=Ies Muy Malada
TTITLE10=Maria's Song
EXTD=
EXTT0=
EXTT1=
EXTT2=
EXTT3=
EXTT4=
EXTT5=
EXTT6=
EXTT7=
EXTT8=
EXTT9=
EXTT10=
PLAYORDER=
